<svg width="120" height="40" viewBox="0 0 120 40" fill="none" xmlns="http://www.w3.org/2000/svg">
<rect x="0.5" y="0.5" width="119" height="39" rx="5.5" fill="black"/>
<rect x="0.5" y="0.5" width="119" height="39" rx="5.5" stroke="#A6A6A6"/>
<path d="M24.7045 20.7631C24.7166 19.8432 24.9669 18.9413 25.4321 18.1412C25.8972 17.3411 26.5621 16.6688 27.3648 16.187C26.8548 15.476 26.1821 14.8908 25.4 14.478C24.6178 14.0652 23.7479 13.8361 22.8592 13.809C20.9635 13.6147 19.1258 14.9164 18.1598 14.9164C17.1751 14.9164 15.6878 13.8283 14.0862 13.8604C13.0502 13.8931 12.0406 14.1872 11.1557 14.7141C10.2708 15.241 9.54075 15.9827 9.03674 16.8669C6.85352 20.5573 8.48201 25.9809 10.5734 28.964C11.6197 30.4247 12.8426 32.0564 14.4428 31.9985C16.0086 31.9351 16.5934 31.0237 18.4835 31.0237C20.3561 31.0237 20.9048 31.9985 22.5374 31.9617C24.2176 31.9351 25.2762 30.4945 26.2859 29.02C27.0377 27.9792 27.6162 26.8288 28 25.6116C27.0238 25.2085 26.1908 24.5338 25.6048 23.6716C25.0187 22.8094 24.7056 21.7979 24.7045 20.7631Z" fill="white"/>
<path d="M21.6208 11.8471C22.5369 10.7734 22.9883 9.39335 22.879 8C21.4794 8.14352 20.1865 8.7966 19.258 9.82911C18.804 10.3335 18.4563 10.9203 18.2348 11.556C18.0132 12.1917 17.9222 12.8638 17.9669 13.5338C18.6669 13.5408 19.3595 13.3927 19.9924 13.1005C20.6254 12.8084 21.1821 12.3798 21.6208 11.8471Z" fill="white"/>
<path d="M39.231 13.608C38.685 13.608 38.202 13.479 37.782 13.221C37.362 12.957 37.035 12.585 36.801 12.105C36.567 11.619 36.45 11.043 36.45 10.377C36.45 9.735 36.567 9.168 36.801 8.676C37.041 8.178 37.377 7.791 37.809 7.515C38.247 7.233 38.757 7.092 39.339 7.092C39.639 7.092 39.912 7.122 40.158 7.182C40.404 7.236 40.635 7.314 40.851 7.416L40.59 8.136C40.404 8.046 40.212 7.974 40.014 7.92C39.822 7.866 39.594 7.839 39.33 7.839C38.946 7.839 38.601 7.938 38.295 8.136C37.995 8.334 37.758 8.619 37.584 8.991C37.41 9.363 37.323 9.813 37.323 10.341C37.323 10.845 37.407 11.286 37.575 11.664C37.749 12.042 37.986 12.336 38.286 12.546C38.592 12.756 38.94 12.861 39.33 12.861C39.624 12.861 39.879 12.825 40.095 12.753C40.311 12.681 40.521 12.588 40.725 12.474L40.986 13.185C40.764 13.305 40.509 13.407 40.221 13.491C39.939 13.569 39.609 13.608 39.231 13.608ZM43.7623 13.608C43.3183 13.608 42.9193 13.506 42.5653 13.302C42.2113 13.092 41.9323 12.804 41.7283 12.438C41.5303 12.066 41.4313 11.64 41.4313 11.16C41.4313 10.656 41.5333 10.221 41.7373 9.855C41.9413 9.489 42.2203 9.207 42.5743 9.009C42.9283 8.811 43.3243 8.712 43.7623 8.712C44.2003 8.712 44.5933 8.811 44.9413 9.009C45.2953 9.207 45.5743 9.489 45.7783 9.855C45.9883 10.215 46.0933 10.644 46.0933 11.142C46.0933 11.64 45.9913 12.075 45.7873 12.447C45.5833 12.813 45.3043 13.098 44.9503 13.302C44.6023 13.506 44.2063 13.608 43.7623 13.608ZM43.7623 12.888C44.2363 12.888 44.6053 12.729 44.8693 12.411C45.1333 12.087 45.2653 11.67 45.2653 11.16C45.2653 10.848 45.1993 10.563 45.0673 10.305C44.9353 10.041 44.7553 9.831 44.5273 9.675C44.3053 9.513 44.0503 9.432 43.7623 9.432C43.2883 9.432 42.9193 9.588 42.6553 9.9C42.3913 10.212 42.2593 10.626 42.2593 11.142C42.2593 11.454 42.3253 11.745 42.4573 12.015C42.5893 12.279 42.7663 12.492 42.9883 12.654C43.2163 12.81 43.4743 12.888 43.7623 12.888ZM47.1702 13.5V8.82H47.9532V9.603C48.1212 9.351 48.3342 9.141 48.5922 8.973C48.8562 8.799 49.1682 8.712 49.5282 8.712C50.0562 8.712 50.4492 8.871 50.7072 9.189C50.9712 9.507 51.1032 9.927 51.1032 10.449V13.5H50.2932V10.539C50.2932 10.203 50.2122 9.933 50.0502 9.729C49.8942 9.525 49.6752 9.423 49.3932 9.423C49.1172 9.423 48.8562 9.522 48.6102 9.72C48.3642 9.912 48.1542 10.14 47.9802 10.404V13.5H47.1702ZM53.7564 13.608C53.4024 13.608 53.0814 13.563 52.7934 13.473C52.5114 13.383 52.2774 13.266 52.0914 13.122L52.4334 12.447C52.5894 12.579 52.7844 12.69 53.0184 12.78C53.2584 12.864 53.5134 12.906 53.7834 12.906C54.1194 12.906 54.3714 12.852 54.5394 12.744C54.7134 12.63 54.8004 12.486 54.8004 12.312C54.8004 12.186 54.7674 12.075 54.7014 11.979C54.6414 11.883 54.5274 11.79 54.3594 11.7C54.1914 11.604 53.9484 11.502 53.6304 11.394C53.1924 11.244 52.8624 11.067 52.6404 10.863C52.4244 10.653 52.3164 10.365 52.3164 9.999C52.3164 9.639 52.4724 9.336 52.7844 9.09C53.1024 8.838 53.5404 8.712 54.0984 8.712C54.3984 8.712 54.6654 8.745 54.8994 8.811C55.1334 8.871 55.3434 8.949 55.5294 9.045L55.3044 9.711C55.1424 9.615 54.9564 9.537 54.7464 9.477C54.5424 9.417 54.3144 9.387 54.0624 9.387C53.7504 9.387 53.5134 9.45 53.3514 9.576C53.1894 9.702 53.1084 9.84 53.1084 9.99C53.1084 10.134 53.1714 10.257 53.2974 10.359C53.4234 10.461 53.6694 10.572 54.0354 10.692C54.6294 10.89 55.0434 11.109 55.2774 11.349C55.5114 11.589 55.6284 11.889 55.6284 12.249C55.6284 12.669 55.4574 13.002 55.1154 13.248C54.7794 13.488 54.3264 13.608 53.7564 13.608ZM56.7063 13.5V8.82H57.5163V13.5H56.7063ZM56.3463 8.325L56.0673 7.776L57.7683 6.651L58.1463 7.407L56.3463 8.325ZM60.6753 15.588C60.3993 15.588 60.1293 15.555 59.8653 15.489C59.6073 15.423 59.3763 15.324 59.1723 15.192L59.4693 14.49C59.6133 14.604 59.7813 14.697 59.9733 14.769C60.1653 14.847 60.3993 14.886 60.6753 14.886C61.1013 14.886 61.4343 14.772 61.6743 14.544C61.9203 14.322 62.0433 13.965 62.0433 13.473V12.897C61.9233 13.041 61.7493 13.179 61.5213 13.311C61.2993 13.437 61.0323 13.5 60.7203 13.5C60.3663 13.5 60.0303 13.41 59.7123 13.23C59.3943 13.044 59.1363 12.774 58.9383 12.42C58.7403 12.066 58.6413 11.64 58.6413 11.142C58.6413 10.674 58.7373 10.257 58.9293 9.891C59.1273 9.525 59.3913 9.237 59.7213 9.027C60.0513 8.817 60.4143 8.712 60.8103 8.712C61.0743 8.712 61.3143 8.757 61.5303 8.847C61.7463 8.937 61.9323 9.048 62.0883 9.18V8.82H62.8263V13.392C62.8263 13.908 62.7363 14.328 62.5563 14.652C62.3763 14.976 62.1243 15.213 61.8003 15.363C61.4823 15.513 61.1073 15.588 60.6753 15.588ZM60.9003 12.78C61.1403 12.78 61.3563 12.726 61.5483 12.618C61.7403 12.51 61.8963 12.384 62.0163 12.24V9.792C61.8843 9.696 61.7253 9.609 61.5393 9.531C61.3533 9.453 61.1373 9.414 60.8913 9.414C60.6453 9.414 60.4143 9.48 60.1983 9.612C59.9823 9.744 59.8053 9.936 59.6673 10.188C59.5353 10.434 59.4693 10.737 59.4693 11.097C59.4693 11.439 59.5353 11.736 59.6673 11.988C59.8053 12.24 59.9823 12.435 60.1983 12.573C60.4143 12.711 60.6483 12.78 60.9003 12.78ZM65.751 13.608C65.481 13.608 65.226 13.551 64.986 13.437C64.746 13.323 64.551 13.14 64.401 12.888C64.251 12.63 64.176 12.288 64.176 11.862V8.82H64.986V11.754C64.986 12.12 65.064 12.402 65.22 12.6C65.376 12.792 65.604 12.888 65.904 12.888C66.15 12.888 66.387 12.84 66.615 12.744C66.849 12.642 67.056 12.507 67.236 12.339V8.82H68.046V12.285C68.046 12.543 68.1 12.714 68.208 12.798C68.322 12.876 68.445 12.915 68.577 12.915L68.406 13.545C67.848 13.545 67.503 13.323 67.371 12.879C67.161 13.095 66.918 13.272 66.642 13.41C66.366 13.542 66.069 13.608 65.751 13.608ZM71.4367 13.608C70.7647 13.608 70.2307 13.395 69.8347 12.969C69.4447 12.537 69.2497 11.934 69.2497 11.16C69.2497 10.692 69.3367 10.275 69.5107 9.909C69.6907 9.537 69.9397 9.246 70.2577 9.036C70.5757 8.82 70.9447 8.712 71.3647 8.712C71.8147 8.712 72.1867 8.811 72.4807 9.009C72.7807 9.201 73.0057 9.462 73.1557 9.792C73.3057 10.122 73.3807 10.485 73.3807 10.881C73.3807 11.091 73.3717 11.295 73.3537 11.493H70.0777C70.1317 11.931 70.2847 12.273 70.5367 12.519C70.7887 12.765 71.1217 12.888 71.5357 12.888C71.8057 12.888 72.0487 12.861 72.2647 12.807C72.4807 12.747 72.6877 12.672 72.8857 12.582L73.0747 13.275C72.8587 13.371 72.6157 13.449 72.3457 13.509C72.0757 13.575 71.7727 13.608 71.4367 13.608ZM70.0687 10.836H72.6337C72.6337 10.38 72.5197 10.029 72.2917 9.783C72.0637 9.537 71.7487 9.414 71.3467 9.414C70.9987 9.414 70.7107 9.537 70.4827 9.783C70.2547 10.023 70.1167 10.374 70.0687 10.836ZM75.8822 13.608C75.6062 13.608 75.3572 13.557 75.1352 13.455C74.9132 13.347 74.7362 13.176 74.6042 12.942C74.4782 12.708 74.4152 12.405 74.4152 12.033V6.84H75.2252V11.952C75.2252 12.276 75.2912 12.516 75.4232 12.672C75.5612 12.828 75.7502 12.906 75.9902 12.906C76.1042 12.906 76.2152 12.894 76.3232 12.87C76.4372 12.84 76.5332 12.807 76.6112 12.771L76.8092 13.428C76.7012 13.476 76.5662 13.518 76.4042 13.554C76.2482 13.59 76.0742 13.608 75.8822 13.608ZM79.4107 13.608C78.9667 13.608 78.5677 13.506 78.2137 13.302C77.8597 13.092 77.5807 12.804 77.3767 12.438C77.1787 12.066 77.0797 11.64 77.0797 11.16C77.0797 10.656 77.1817 10.221 77.3857 9.855C77.5897 9.489 77.8687 9.207 78.2227 9.009C78.5767 8.811 78.9727 8.712 79.4107 8.712C79.8487 8.712 80.2417 8.811 80.5897 9.009C80.9437 9.207 81.2227 9.489 81.4267 9.855C81.6367 10.215 81.7417 10.644 81.7417 11.142C81.7417 11.64 81.6397 12.075 81.4357 12.447C81.2317 12.813 80.9527 13.098 80.5987 13.302C80.2507 13.506 79.8547 13.608 79.4107 13.608ZM79.4107 12.888C79.8847 12.888 80.2537 12.729 80.5177 12.411C80.7817 12.087 80.9137 11.67 80.9137 11.16C80.9137 10.848 80.8477 10.563 80.7157 10.305C80.5837 10.041 80.4037 9.831 80.1757 9.675C79.9537 9.513 79.6987 9.432 79.4107 9.432C78.9367 9.432 78.5677 9.588 78.3037 9.9C78.0397 10.212 77.9077 10.626 77.9077 11.142C77.9077 11.454 77.9737 11.745 78.1057 12.015C78.2377 12.279 78.4147 12.492 78.6367 12.654C78.8647 12.81 79.1227 12.888 79.4107 12.888ZM87.3889 13.608C86.7169 13.608 86.1829 13.395 85.7869 12.969C85.3969 12.537 85.2019 11.934 85.2019 11.16C85.2019 10.692 85.2889 10.275 85.4629 9.909C85.6429 9.537 85.8919 9.246 86.2099 9.036C86.5279 8.82 86.8969 8.712 87.3169 8.712C87.7669 8.712 88.1389 8.811 88.4329 9.009C88.7329 9.201 88.9579 9.462 89.1079 9.792C89.2579 10.122 89.3329 10.485 89.3329 10.881C89.3329 11.091 89.3239 11.295 89.3059 11.493H86.0299C86.0839 11.931 86.2369 12.273 86.4889 12.519C86.7409 12.765 87.0739 12.888 87.4879 12.888C87.7579 12.888 88.0009 12.861 88.2169 12.807C88.4329 12.747 88.6399 12.672 88.8379 12.582L89.0269 13.275C88.8109 13.371 88.5679 13.449 88.2979 13.509C88.0279 13.575 87.7249 13.608 87.3889 13.608ZM86.0209 10.836H88.5859C88.5859 10.38 88.4719 10.029 88.2439 9.783C88.0159 9.537 87.7009 9.414 87.2989 9.414C86.9509 9.414 86.6629 9.537 86.4349 9.783C86.2069 10.023 86.0689 10.374 86.0209 10.836ZM90.4124 13.5V8.82H91.1954V9.603C91.3634 9.351 91.5764 9.141 91.8344 8.973C92.0984 8.799 92.4104 8.712 92.7704 8.712C93.2984 8.712 93.6914 8.871 93.9494 9.189C94.2134 9.507 94.3454 9.927 94.3454 10.449V13.5H93.5354V10.539C93.5354 10.203 93.4544 9.933 93.2924 9.729C93.1364 9.525 92.9174 9.423 92.6354 9.423C92.3594 9.423 92.0984 9.522 91.8524 9.72C91.6064 9.912 91.3964 10.14 91.2224 10.404V13.5H90.4124ZM100.309 13.608C99.6368 13.608 99.1028 13.395 98.7068 12.969C98.3168 12.537 98.1218 11.934 98.1218 11.16C98.1218 10.692 98.2088 10.275 98.3828 9.909C98.5628 9.537 98.8118 9.246 99.1298 9.036C99.4478 8.82 99.8168 8.712 100.237 8.712C100.687 8.712 101.059 8.811 101.353 9.009C101.653 9.201 101.878 9.462 102.028 9.792C102.178 10.122 102.253 10.485 102.253 10.881C102.253 11.091 102.244 11.295 102.226 11.493H98.9498C99.0038 11.931 99.1568 12.273 99.4088 12.519C99.6608 12.765 99.9938 12.888 100.408 12.888C100.678 12.888 100.921 12.861 101.137 12.807C101.353 12.747 101.56 12.672 101.758 12.582L101.947 13.275C101.731 13.371 101.488 13.449 101.218 13.509C100.948 13.575 100.645 13.608 100.309 13.608ZM98.9408 10.836H101.506C101.506 10.38 101.392 10.029 101.164 9.783C100.936 9.537 100.621 9.414 100.219 9.414C99.8708 9.414 99.5828 9.537 99.3548 9.783C99.1268 10.023 98.9888 10.374 98.9408 10.836ZM104.754 13.608C104.478 13.608 104.229 13.557 104.007 13.455C103.785 13.347 103.608 13.176 103.476 12.942C103.35 12.708 103.287 12.405 103.287 12.033V6.84H104.097V11.952C104.097 12.276 104.163 12.516 104.295 12.672C104.433 12.828 104.622 12.906 104.862 12.906C104.976 12.906 105.087 12.894 105.195 12.87C105.309 12.84 105.405 12.807 105.483 12.771L105.681 13.428C105.573 13.476 105.438 13.518 105.276 13.554C105.12 13.59 104.946 13.608 104.754 13.608Z" fill="white"/>
<path d="M38.2061 30.5H36.1758L40.3066 18.5029H42.5391L46.6611 30.5H44.5518L43.4883 27.1777H39.2783L38.2061 30.5ZM41.4316 20.5771H41.3525L39.7266 25.6484H43.04L41.4316 20.5771ZM52.2644 30.6318C51.0603 30.6318 50.1462 30.0605 49.654 29.208H49.5837V33.585H47.6325V21.21H49.531V22.5723H49.6013C50.1111 21.6846 51.0603 21.0869 52.3083 21.0869C54.3913 21.0869 55.8767 22.6602 55.8767 25.4375V26.2637C55.8767 29.0234 54.4089 30.6318 52.2644 30.6318ZM51.8161 29.0234C53.0554 29.0234 53.8991 28.0303 53.8991 26.1582V25.5078C53.8991 23.7061 53.1081 22.6777 51.781 22.6777C50.4187 22.6777 49.5661 23.7852 49.5661 25.499V26.1582C49.5661 27.916 50.4275 29.0234 51.8161 29.0234ZM62.183 30.6318C60.9789 30.6318 60.0649 30.0605 59.5727 29.208H59.5024V33.585H57.5512V21.21H59.4496V22.5723H59.52C60.0297 21.6846 60.9789 21.0869 62.227 21.0869C64.31 21.0869 65.7954 22.6602 65.7954 25.4375V26.2637C65.7954 29.0234 64.3276 30.6318 62.183 30.6318ZM61.7348 29.0234C62.9741 29.0234 63.8178 28.0303 63.8178 26.1582V25.5078C63.8178 23.7061 63.0268 22.6777 61.6996 22.6777C60.3373 22.6777 59.4848 23.7852 59.4848 25.499V26.1582C59.4848 27.916 60.3461 29.0234 61.7348 29.0234ZM69.8387 27.1689H71.7899C71.8778 28.2061 72.7919 29.0938 74.4882 29.0938C76.0438 29.0938 76.9667 28.3643 76.9667 27.2305C76.9667 26.3164 76.3514 25.8242 75.0682 25.5166L73.0995 25.0244C71.5526 24.6641 70.1639 23.7412 70.1639 21.79C70.1639 19.4961 72.1679 18.2393 74.497 18.2393C76.8261 18.2393 78.7684 19.4961 78.8124 21.7373H76.8964C76.8085 20.7178 76.0262 19.874 74.4706 19.874C73.0995 19.874 72.1679 20.5244 72.1679 21.6406C72.1679 22.4229 72.7128 22.9854 73.829 23.2402L75.7889 23.7236C77.5907 24.1631 78.9618 25.0156 78.9618 27.0547C78.9618 29.4102 77.0546 30.7373 74.3387 30.7373C70.9989 30.7373 69.8827 28.7861 69.8387 27.1689ZM81.3395 21.21V18.9512H83.2555V21.21H85.066V22.7744H83.2555V27.7314C83.2555 28.7422 83.6334 29.0234 84.6793 29.0234C84.8463 29.0234 85.0045 29.0234 85.1188 29.0059V30.5C84.9605 30.5264 84.5914 30.5615 84.1959 30.5615C81.9371 30.5615 81.3131 29.7529 81.3131 27.8896V22.7744H80.0299V21.21H81.3395ZM90.3353 21.0518C93.0071 21.0518 94.4573 22.9326 94.4573 25.4639V26.2109C94.4573 28.8301 93.0159 30.6582 90.3353 30.6582C87.6546 30.6582 86.1956 28.8301 86.1956 26.2109V25.4639C86.1956 22.9414 87.6634 21.0518 90.3353 21.0518ZM90.3353 22.6162C88.8851 22.6162 88.1644 23.8027 88.1644 25.4902V26.2021C88.1644 27.8633 88.8763 29.085 90.3353 29.085C91.7943 29.085 92.4974 27.8721 92.4974 26.2021V25.4902C92.4974 23.7939 91.7855 22.6162 90.3353 22.6162ZM96.1055 30.5V21.21H98.0567V22.4316H98.127C98.3643 21.8516 99.0586 21.0781 100.351 21.0781C100.606 21.0781 100.825 21.0957 101.01 21.1309V22.8535C100.843 22.8096 100.5 22.7832 100.175 22.7832C98.6104 22.7832 98.083 23.75 98.083 24.998V30.5H96.1055ZM105.743 30.6582C103.256 30.6582 101.674 29.0146 101.674 26.2637V25.3232C101.674 22.7305 103.22 21.0518 105.664 21.0518C108.142 21.0518 109.636 22.792 109.636 25.4111V26.2988H103.598V26.5186C103.598 28.083 104.442 29.1201 105.769 29.1201C106.762 29.1201 107.439 28.6279 107.677 27.8281H109.531C109.25 29.3311 108.037 30.6582 105.743 30.6582ZM103.598 24.9365H107.729V24.9189C107.729 23.6006 106.912 22.5635 105.673 22.5635C104.416 22.5635 103.598 23.6006 103.598 24.9189V24.9365Z" fill="white"/>
</svg>
