<svg width="94" height="55" viewBox="0 0 94 55" fill="none" xmlns="http://www.w3.org/2000/svg">
<path d="M25.1865 50.9589C24.2129 50.9589 22.1415 51.0613 18.8941 51.1395C18.0544 51.1598 15.9041 51.269 12.7784 51.2946C10.9722 51.3094 10.0481 51.5264 9.24573 51.6047C8.58873 51.6688 7.87747 51.8365 7.02396 52.0179C6.13429 52.207 5.49911 52.3016 4.85257 52.5086C4.06413 52.761 3.3285 52.9218 2.55328 53.1288C2.34552 53.1807 2.14086 53.2319 1.95869 53.2838C1.77651 53.3357 1.62302 53.3869 1.15479 53.7497" stroke="#7F22FE" stroke-width="2" stroke-linecap="round"/>
<path d="M25.9618 39.7958C25.9106 39.4873 25.6021 38.8686 25.0594 38.3764C24.3813 37.7612 23.6392 37.0577 23.0183 36.6965C22.3967 36.3348 21.7787 36.1275 21.1322 35.9205C20.3764 35.6785 19.7632 35.2499 19.1422 34.9646C18.9864 34.8871 18.8329 34.7848 18.4212 34.7321C18.0096 34.6794 17.3445 34.6794 16.6592 34.6794" stroke="#7F22FE" stroke-width="2" stroke-linecap="round"/>
<path d="M39.1404 46.6177C39.1404 45.3324 39.0381 43.675 38.8567 42.9254C38.6778 42.1861 38.3156 40.633 37.773 38.9997C37.5128 38.2166 36.3093 35.1724 35.5752 33.2607C35.2024 32.2899 34.4395 31.0669 34.0511 30.3405C33.7291 29.7381 33.0472 28.3846 32.3464 27.2404C31.8801 26.479 31.596 25.845 29.8192 23.0108C29.0668 21.8106 28.3432 20.8867 27.6951 20.082C26.9089 19.1059 25.4005 17.2215 24.6974 16.1028C24.2264 15.3536 23.3322 14.5795 22.2957 13.9059C21.4669 13.3672 20.9507 12.4089 20.1267 11.3507C17.7506 8.94834 16.0948 7.49714 15.3955 7.21185C15.2141 7.13433 15.0095 7.032 14.6436 6.92657" stroke="#7F22FE" stroke-width="2" stroke-linecap="round"/>
<path d="M34.0241 15.1439C34.0241 14.5283 33.9217 13.1841 33.2 11.6097C32.8122 10.7637 32.2193 9.72355 31.5713 8.94445C30.993 8.24931 30.3061 7.49712 29.7115 6.82656C28.5991 5.73893 28.1339 5.42884 27.8246 5.24822C27.6688 5.16992 27.5153 5.11875 27.3572 5.06604" stroke="#7F22FE" stroke-width="2" stroke-linecap="round"/>
<path d="M38.9854 45.3774C38.9854 44.0967 39.0877 41.4021 39.166 40.085C39.2474 38.7146 39.3978 36.6484 39.4761 33.9918C39.5167 32.6118 39.7079 31.2715 39.7862 30.1358C39.8376 29.3891 40.173 28.4838 40.2513 27.2164C40.3362 25.8415 40.4831 24.8124 40.6125 23.3938C40.8017 21.3208 41.1032 20.1115 41.1815 19.1781C41.2474 18.3934 41.618 17.2711 41.9304 16.361C42.1831 15.6247 42.3436 14.9919 42.7048 14.2423C43.1955 13.2241 44.4553 11.0724 45.3398 9.8755C45.9074 9.10744 46.5794 8.73749 47.2259 8.3491C48.0525 7.85258 49.0601 7.59947 50.0927 7.2638C50.9591 6.98215 51.7982 6.72192 52.4974 6.56532C53.272 6.39185 53.8664 6.10174 54.6161 5.84205C55.4344 5.55853 56.5022 5.5839 59.9798 5.60793C61.5426 5.61873 62.3938 6.51106 63.0148 6.79634C63.6799 7.10193 64.3567 7.69869 65.0303 8.16537C65.6015 8.56101 66.3722 8.784 67.1746 9.25068C67.9 9.6726 68.6979 10.4368 69.1142 11.136C69.5804 11.9191 69.9414 12.505 70.3538 13.2803C70.8352 14.1852 71.5941 14.5206 71.9569 15.1927C72.1782 15.6026 72.0608 16.0726 72.0616 16.3563C72.0624 16.6656 71.5461 16.7966 71.0577 16.9517C70.2492 17.2083 69.5305 16.8509 69.2468 16.5416C68.9852 16.2564 68.9088 15.409 68.9599 14.3245C69.0111 13.9051 69.1134 13.7516 69.3964 13.6725C69.6793 13.5934 70.1398 13.5934 70.9243 13.5934" stroke="#7F22FE" stroke-width="2" stroke-linecap="round"/>
<path d="M69.219 13.2833C69.3213 12.8725 69.6314 12.0461 70.1213 11.4251C70.5753 10.8498 70.7167 10.0832 71.1291 9.384C71.6956 8.4235 72.9338 7.55293 73.6873 6.77384C74.1841 6.26024 74.7975 5.94668 75.4184 5.53272C76.0394 5.11875 76.658 4.80866 77.2789 4.44741C77.924 4.07213 78.5185 3.62103 79.1395 3.20706C79.7378 2.80814 80.379 2.53572 81.5403 2.01865C82.4022 1.6349 84.5001 1.65508 85.8063 1.80935C86.4564 1.88611 87.0459 2.22254 87.6924 2.4551C88.4663 2.73346 89.0615 3.10008 89.6824 3.38536C90.3034 3.82414 90.922 4.2381 91.5429 4.57377C91.6988 4.65207 91.8523 4.70323 92.0104 4.75595" stroke="#7F22FE" stroke-width="2" stroke-linecap="round"/>
</svg>
