<svg width="45" height="37" viewBox="0 0 45 37" fill="none" xmlns="http://www.w3.org/2000/svg">
<path d="M6 23L13.5 36L27 17.5L6 23Z" fill="black"/>
<path d="M3.5 9.5L1.5 14.5L15.5 13L3.5 9.5Z" fill="black"/>
<path d="M6 23L13.5 36L27 17.5L6 23Z" stroke="black"/>
<path d="M3.5 9.5L1.5 14.5L15.5 13L3.5 9.5Z" stroke="black"/>
<path d="M15 1L13 3.5L19.5 6.5L15 1Z" fill="black"/>
<path d="M30 36L25.5 33L30 26V36Z" fill="black"/>
<path d="M44 25L38.5 24L40.5 29.5L44 25Z" fill="black"/>
<path d="M15 1L13 3.5L19.5 6.5L15 1Z" stroke="black"/>
<path d="M30 36L25.5 33L30 26V36Z" stroke="black"/>
<path d="M44 25L38.5 24L40.5 29.5L44 25Z" stroke="black"/>
</svg>
