<svg width="101" height="142" viewBox="0 0 101 142" fill="none" xmlns="http://www.w3.org/2000/svg">
<path d="M47 37.4999C45.5 37.9999 33.5 51.4999 34 51C33.4046 53.8852 34.1985 54.5735 37.5 54L52 41.9999C55.0953 37.625 48.5001 37 47 37.4999Z" fill="#8D51FF"/>
<path d="M47.5001 71.5L35.0001 80.5C33.5454 83.7588 33.8563 84.8306 38.5001 84L50.5001 75.5C52.2856 71.6432 51.0026 71.2523 47.5001 71.5Z" fill="#8D51FF"/>
<path d="M15.0001 72.5L6.00006 78.5L2.50006 74L12.0001 68L15.0001 72.5Z" fill="#8D51FF"/>
<path d="M18.0001 97L5.00006 107C0.88238 111.948 -0.627638 114.329 8.00006 113L22.5001 100.5C24.4523 97.6595 23.1836 97.0046 18.0001 97Z" fill="#8D51FF"/>
<path d="M2.00006 137C-0.101833 140.478 0.312687 141.432 4.50006 141L17.5001 133C19.1704 129.831 18.4593 128.986 14.5001 129L2.00006 137Z" fill="#8D51FF"/>
<path d="M82.5001 77C79.8609 79.9066 79.0654 81.2244 85.5001 80L99.5001 71.5C100.294 67.2922 99.3966 66.3293 95.5001 67L82.5001 77Z" fill="#8D51FF"/>
<path d="M37.5001 11C34.9529 15.1145 36.0298 16.4499 41 15L54.9999 4.99995C58.4999 0.999945 55.6073 -0.0528493 51.0001 1.00003L37.5001 11Z" fill="#8D51FF"/>
<path d="M19.0001 29L6.00006 37.5C0.578704 42.3428 2.34641 43.6673 9 42.4999L21.4999 33.4999C26.4999 29.4999 22.6956 28.1693 19.0001 29Z" fill="#8D51FF"/>
<path d="M47 37.4999C45.5 37.9999 33.5 51.4999 34 51C33.4046 53.8852 34.1985 54.5735 37.5 54L52 41.9999C55.0953 37.625 48.5001 37 47 37.4999Z" stroke="#8D51FF"/>
<path d="M47.5001 71.5L35.0001 80.5C33.5454 83.7588 33.8563 84.8306 38.5001 84L50.5001 75.5C52.2856 71.6432 51.0026 71.2523 47.5001 71.5Z" stroke="#8D51FF"/>
<path d="M15.0001 72.5L6.00006 78.5L2.50006 74L12.0001 68L15.0001 72.5Z" stroke="#8D51FF"/>
<path d="M18.0001 97L5.00006 107C0.88238 111.948 -0.627638 114.329 8.00006 113L22.5001 100.5C24.4523 97.6595 23.1836 97.0046 18.0001 97Z" stroke="#8D51FF"/>
<path d="M2.00006 137C-0.101833 140.478 0.312687 141.432 4.50006 141L17.5001 133C19.1704 129.831 18.4593 128.986 14.5001 129L2.00006 137Z" stroke="#8D51FF"/>
<path d="M82.5001 77C79.8609 79.9066 79.0654 81.2244 85.5001 80L99.5001 71.5C100.294 67.2922 99.3966 66.3293 95.5001 67L82.5001 77Z" stroke="#8D51FF"/>
<path d="M37.5001 11C34.9529 15.1145 36.0298 16.4499 41 15L54.9999 4.99995C58.4999 0.999945 55.6073 -0.0528493 51.0001 1.00003L37.5001 11Z" stroke="#8D51FF"/>
<path d="M19.0001 29L6.00006 37.5C0.578704 42.3428 2.34641 43.6673 9 42.4999L21.4999 33.4999C26.4999 29.4999 22.6956 28.1693 19.0001 29Z" stroke="#8D51FF"/>
</svg>
