<svg width="120" height="40" viewBox="0 0 120 40" fill="none" xmlns="http://www.w3.org/2000/svg">
<rect x="0.5" y="0.5" width="119" height="39" rx="5.5" fill="black"/>
<rect x="0.5" y="0.5" width="119" height="39" rx="5.5" stroke="#A6A6A6"/>
<path d="M17.8048 19.4617L8.0896 30.0059C8.09051 30.0078 8.09051 30.0106 8.09142 30.0125C8.38981 31.1574 9.41179 32 10.6254 32C11.1108 32 11.5662 31.8656 11.9567 31.6305L11.9877 31.6118L22.9229 25.1593L17.8048 19.4617Z" fill="#EA4335"/>
<path d="M27.6331 17.6662L27.624 17.6597L22.9028 14.8612L17.5839 19.7013L22.9219 25.1582L27.6176 22.3878C28.4406 21.9324 29 21.045 29 20.0223C29 19.0052 28.4489 18.1225 27.6331 17.6662Z" fill="#FBBC04"/>
<path d="M8.08942 9.99331C8.03102 10.2135 8 10.4449 8 10.6838V29.3163C8 29.5552 8.03102 29.7866 8.09034 30.0059L18.1386 19.7313L8.08942 9.99331Z" fill="#4285F4"/>
<path d="M17.8766 19.9999L22.9044 14.8594L11.9819 8.38351C11.585 8.13996 11.1214 8 10.626 8C9.41237 8 8.38856 8.84447 8.09018 9.99034C8.09018 9.99127 8.08926 9.9922 8.08926 9.99314L17.8766 19.9999Z" fill="#34A853"/>
<path d="M38.192 12.064C37.888 12.064 37.6213 12.056 37.392 12.04C37.168 12.024 36.944 12.0053 36.72 11.984V6.416C36.9707 6.38933 37.216 6.37067 37.456 6.36C37.696 6.344 37.9707 6.336 38.28 6.336C38.76 6.336 39.1733 6.41067 39.52 6.56C39.872 6.70933 40.16 6.91467 40.384 7.176C40.6133 7.43733 40.7813 7.74133 40.888 8.088C41 8.42933 41.056 8.79733 41.056 9.192C41.056 9.58133 41 9.94933 40.888 10.296C40.776 10.6427 40.6027 10.9493 40.368 11.216C40.1387 11.4773 39.8427 11.6853 39.48 11.84C39.1227 11.9893 38.6933 12.064 38.192 12.064ZM38.216 11.4C38.696 11.4 39.088 11.3067 39.392 11.12C39.696 10.9333 39.92 10.6747 40.064 10.344C40.208 10.008 40.28 9.624 40.28 9.192C40.28 8.808 40.208 8.448 40.064 8.112C39.92 7.776 39.6987 7.50667 39.4 7.304C39.1013 7.096 38.72 6.992 38.256 6.992C38.1013 6.992 37.96 6.99733 37.832 7.008C37.704 7.01333 37.5867 7.02133 37.48 7.032V11.36C37.592 11.376 37.7093 11.3867 37.832 11.392C37.9547 11.3973 38.0827 11.4 38.216 11.4ZM42.1731 12V6.4H42.9331V12H42.1731ZM45.7682 12.096C45.3789 12.096 45.0243 12.0453 44.7043 11.944C44.3843 11.8373 44.1149 11.6987 43.8963 11.528L44.2803 10.888C44.4723 11.048 44.6883 11.1787 44.9283 11.28C45.1683 11.3813 45.4483 11.432 45.7682 11.432C46.1523 11.432 46.4563 11.352 46.6803 11.192C46.9043 11.032 47.0163 10.816 47.0163 10.544C47.0163 10.3893 46.9843 10.2533 46.9203 10.136C46.8563 10.0133 46.7309 9.896 46.5443 9.784C46.3629 9.66667 46.0936 9.54133 45.7363 9.408C45.3523 9.25867 45.0456 9.10933 44.8163 8.96C44.5869 8.80533 44.4216 8.632 44.3203 8.44C44.2243 8.24267 44.1763 8.01067 44.1763 7.744C44.1763 7.47733 44.2483 7.23733 44.3923 7.024C44.5416 6.80533 44.7576 6.632 45.0403 6.504C45.3283 6.37067 45.6749 6.304 46.0803 6.304C46.4109 6.304 46.7069 6.33867 46.9683 6.408C47.2349 6.472 47.4936 6.56533 47.7443 6.688L47.4643 7.336C47.2829 7.22933 47.0696 7.14133 46.8243 7.072C46.5843 6.99733 46.3309 6.96 46.0643 6.96C45.7123 6.96 45.4349 7.02933 45.2323 7.168C45.0296 7.30667 44.9283 7.48533 44.9283 7.704C44.9283 7.84267 44.9576 7.96533 45.0163 8.072C45.0749 8.17867 45.1896 8.28267 45.3603 8.384C45.5363 8.48533 45.7976 8.6 46.1443 8.728C46.5603 8.88267 46.8883 9.04533 47.1283 9.216C47.3736 9.38667 47.5469 9.57333 47.6483 9.776C47.7496 9.97333 47.8003 10.2 47.8003 10.456C47.8003 10.8027 47.7123 11.0987 47.5363 11.344C47.3656 11.5893 47.1256 11.776 46.8163 11.904C46.5123 12.032 46.1629 12.096 45.7682 12.096ZM48.9231 12V6.416C49.1418 6.38933 49.3818 6.37067 49.6431 6.36C49.9098 6.344 50.1845 6.336 50.4671 6.336C50.9311 6.336 51.3258 6.41067 51.6511 6.56C51.9765 6.704 52.2245 6.904 52.3951 7.16C52.5658 7.416 52.6511 7.70933 52.6511 8.04C52.6511 8.44 52.5525 8.77867 52.3551 9.056C52.1578 9.33333 51.8831 9.54667 51.5311 9.696C51.1791 9.84 50.7711 9.912 50.3071 9.912C50.0831 9.912 49.8751 9.904 49.6831 9.888V12H48.9231ZM50.4031 9.28C50.8778 9.28 51.2458 9.17333 51.5071 8.96C51.7685 8.74667 51.8991 8.46133 51.8991 8.104C51.8991 7.75733 51.7738 7.48267 51.5231 7.28C51.2725 7.07733 50.9151 6.976 50.4511 6.976C50.3071 6.976 50.1711 6.97867 50.0431 6.984C49.9151 6.98933 49.7951 6.99733 49.6831 7.008V9.24C49.7685 9.25067 49.8725 9.26133 49.9951 9.272C50.1178 9.27733 50.2538 9.28 50.4031 9.28ZM55.8916 12.096C55.4756 12.096 55.1049 12.0213 54.7796 11.872C54.4542 11.7173 54.1769 11.5093 53.9476 11.248C53.7236 10.9813 53.5502 10.672 53.4276 10.32C53.3102 9.968 53.2516 9.592 53.2516 9.192C53.2516 8.64267 53.3556 8.152 53.5636 7.72C53.7769 7.28267 54.0809 6.93867 54.4756 6.688C54.8702 6.432 55.3422 6.304 55.8916 6.304C56.3022 6.304 56.6702 6.37867 56.9956 6.528C57.3262 6.67733 57.6062 6.88533 57.8356 7.152C58.0649 7.41867 58.2382 7.72533 58.3556 8.072C58.4782 8.41867 58.5396 8.792 58.5396 9.192C58.5396 9.592 58.4782 9.968 58.3556 10.32C58.2382 10.672 58.0649 10.9813 57.8356 11.248C57.6062 11.5093 57.3289 11.7173 57.0036 11.872C56.6782 12.0213 56.3076 12.096 55.8916 12.096ZM55.8916 11.44C56.3022 11.44 56.6462 11.3413 56.9236 11.144C57.2009 10.9467 57.4089 10.68 57.5476 10.344C57.6916 10.0027 57.7636 9.61867 57.7636 9.192C57.7636 8.904 57.7209 8.62667 57.6356 8.36C57.5502 8.09333 57.4276 7.856 57.2676 7.648C57.1076 7.43467 56.9102 7.26667 56.6756 7.144C56.4462 7.02133 56.1849 6.96 55.8916 6.96C55.5022 6.96 55.1662 7.05867 54.8836 7.256C54.6062 7.45333 54.3929 7.72 54.2436 8.056C54.0996 8.392 54.0276 8.77067 54.0276 9.192C54.0276 9.48 54.0676 9.76 54.1476 10.032C54.2329 10.2987 54.3556 10.5387 54.5156 10.752C54.6756 10.9653 54.8702 11.1333 55.0996 11.256C55.3342 11.3787 55.5982 11.44 55.8916 11.44ZM59.6575 12V6.4H60.6655L63.1375 11.056V6.4H63.8575V12H62.8655L60.3775 7.376V12H59.6575ZM65.2981 12V6.4H66.0581V12H65.2981ZM69.1173 12.064C68.7919 12.064 68.4826 12.056 68.1893 12.04C67.9013 12.024 67.6719 12.0053 67.5013 11.984V6.416C67.6879 6.39467 67.9199 6.376 68.1973 6.36C68.4746 6.344 68.7919 6.336 69.1493 6.336C69.8319 6.336 70.3573 6.46667 70.7253 6.728C71.0933 6.984 71.2773 7.33333 71.2773 7.776C71.2773 8.06933 71.1973 8.32 71.0373 8.528C70.8826 8.73067 70.6559 8.89867 70.3573 9.032C70.7199 9.16 70.9946 9.33867 71.1813 9.568C71.3679 9.792 71.4613 10.0693 71.4613 10.4C71.4613 10.9067 71.2613 11.312 70.8613 11.616C70.4613 11.9147 69.8799 12.064 69.1173 12.064ZM68.2613 8.816H69.1413C69.5626 8.816 69.8959 8.728 70.1413 8.552C70.3919 8.376 70.5173 8.14933 70.5173 7.872C70.5173 7.57333 70.3946 7.34667 70.1493 7.192C69.9039 7.032 69.5679 6.952 69.1413 6.952C68.9653 6.952 68.8053 6.95733 68.6613 6.968C68.5173 6.97333 68.3839 6.98133 68.2613 6.992V8.816ZM69.1733 11.432C69.6479 11.432 70.0186 11.3467 70.2853 11.176C70.5519 11.0053 70.6853 10.7573 70.6853 10.432C70.6853 10.112 70.5546 9.86133 70.2933 9.68C70.0319 9.49867 69.6586 9.408 69.1733 9.408H68.2613V11.384C68.5439 11.416 68.8479 11.432 69.1733 11.432ZM72.5403 12V6.4H73.3003V11.32H75.8683V12H72.5403ZM76.6263 12V6.4H79.9863V7.056H77.3863V8.76H79.6263V9.4H77.3863V11.344H79.9863V12H76.6263ZM83.4622 12V6.4H86.8222V7.056H84.2222V8.76H86.4622V9.4H84.2222V11.344H86.8222V12H83.4622ZM87.8997 12V6.4H88.9077L91.3797 11.056V6.4H92.0997V12H91.1077L88.6197 7.376V12H87.8997Z" fill="white"/>
<path d="M93.5181 28.4097H95.1469V17.3981H93.5181V28.4097ZM108.189 21.3646L106.322 26.1388H106.266L104.328 21.3646H102.573L105.479 28.0371L103.823 31.749H105.521L110 21.3646H108.189ZM98.9519 27.1588C98.4176 27.1588 97.6739 26.8902 97.6739 26.2234C97.6739 25.3742 98.6001 25.0483 99.4005 25.0483C100.116 25.0483 100.454 25.2042 100.889 25.4165C100.762 26.4365 99.892 27.1588 98.9519 27.1588ZM99.1483 21.1241C97.969 21.1241 96.7469 21.6482 96.2424 22.8101L97.6879 23.4188C97.9969 22.8101 98.5721 22.611 99.1762 22.611C100.019 22.611 100.875 23.121 100.889 24.0283V24.1411C100.594 23.971 99.9627 23.7165 99.1902 23.7165C97.632 23.7165 96.0451 24.5806 96.0451 26.1952C96.0451 27.6689 97.323 28.6184 98.7546 28.6184C99.8501 28.6184 100.454 28.1225 100.833 27.5411H100.889V28.3912H102.461V24.1692C102.461 22.2146 101.015 21.1241 99.1483 21.1241ZM89.0821 22.7053H86.7655V18.9308H89.0821C90.2998 18.9308 90.9911 19.9482 90.9911 20.8176C90.9911 21.6711 90.2998 22.7053 89.0821 22.7053ZM89.0402 17.3981H85.1375V28.4097H86.7655V24.2379H89.0402C90.8453 24.2379 92.6199 22.9184 92.6199 20.8176C92.6199 18.7168 90.8453 17.3981 89.0402 17.3981ZM67.7583 27.1606C66.6332 27.1606 65.6913 26.2102 65.6913 24.9047C65.6913 23.5852 66.6332 22.6198 67.7583 22.6198C68.8695 22.6198 69.7406 23.5852 69.7406 24.9047C69.7406 26.2102 68.8695 27.1606 67.7583 27.1606ZM69.6289 21.9812H69.5722C69.2064 21.5417 68.5038 21.1444 67.6178 21.1444C65.7611 21.1444 64.0599 22.7898 64.0599 24.9047C64.0599 27.0047 65.7611 28.6369 67.6178 28.6369C68.5038 28.6369 69.2064 28.2396 69.5722 27.7851H69.6289V28.3251C69.6289 29.7582 68.8695 30.5246 67.6457 30.5246C66.6471 30.5246 66.0282 29.8005 65.7751 29.1901L64.3549 29.7864C64.7626 30.78 65.8458 32 67.6457 32C69.5582 32 71.1757 30.8646 71.1757 28.0978V21.3708H69.6289V21.9812ZM72.3008 28.4097H73.9323V17.3973H72.3008V28.4097ZM76.3362 24.777C76.2943 23.3298 77.4474 22.5916 78.2766 22.5916C78.9243 22.5916 79.4725 22.9176 79.6549 23.3862L76.3362 24.777ZM81.3989 23.528C81.0899 22.6912 80.1472 21.1444 78.2208 21.1444C76.3083 21.1444 74.7196 22.6621 74.7196 24.8907C74.7196 26.9906 76.2943 28.6369 78.4032 28.6369C80.1053 28.6369 81.0899 27.5869 81.4976 26.9765L80.2319 26.1247C79.8103 26.7493 79.2333 27.1606 78.4032 27.1606C77.5739 27.1606 76.983 26.7774 76.6033 26.0261L81.5674 23.9534L81.3989 23.528ZM41.8501 22.2939V23.883H45.6184C45.5058 24.777 45.2107 25.4297 44.7612 25.8834C44.2121 26.4374 43.3541 27.0479 41.8501 27.0479C39.5291 27.0479 37.7152 25.1602 37.7152 22.8189C37.7152 20.4767 39.5291 18.5899 41.8501 18.5899C43.1018 18.5899 44.0157 19.0867 44.6905 19.7254L45.8017 18.604C44.8589 17.6959 43.6081 17 41.8501 17C38.6719 17 36 19.6117 36 22.8189C36 26.0261 38.6719 28.6369 41.8501 28.6369C43.5653 28.6369 44.8589 28.0688 45.8715 27.0047C46.9129 25.9547 47.2358 24.4793 47.2358 23.2866C47.2358 22.9176 47.2079 22.5775 47.1512 22.2939H41.8501ZM51.5208 27.1606C50.3957 27.1606 49.425 26.2243 49.425 24.8907C49.425 23.5421 50.3957 22.6198 51.5208 22.6198C52.6451 22.6198 53.6158 23.5421 53.6158 24.8907C53.6158 26.2243 52.6451 27.1606 51.5208 27.1606ZM51.5208 21.1444C49.4669 21.1444 47.7936 22.7194 47.7936 24.8907C47.7936 27.0479 49.4669 28.6369 51.5208 28.6369C53.5739 28.6369 55.2472 27.0479 55.2472 24.8907C55.2472 22.7194 53.5739 21.1444 51.5208 21.1444ZM59.65 27.1606C58.5249 27.1606 57.5542 26.2243 57.5542 24.8907C57.5542 23.5421 58.5249 22.6198 59.65 22.6198C60.7752 22.6198 61.745 23.5421 61.745 24.8907C61.745 26.2243 60.7752 27.1606 59.65 27.1606ZM59.65 21.1444C57.597 21.1444 55.9237 22.7194 55.9237 24.8907C55.9237 27.0479 57.597 28.6369 59.65 28.6369C61.7031 28.6369 63.3764 27.0479 63.3764 24.8907C63.3764 22.7194 61.7031 21.1444 59.65 21.1444Z" fill="white"/>
</svg>
